HIERARCHY
ROOT hip
{
  OFFSET 0 0 0
  CHANNELS 6 Xposition Yposition Zposition Zrotation Yrotation Xrotation
  JOINT abdomen
  {
    OFFSET 0 20.6881 -0.73152
    CHANNELS 3 Zrotation Xrotation Yrotation
    JOINT chest
    {
      OFFSET 0 11.7043 -0.48768
      CHANNELS 3 Zrotation Xrotation Yrotation
      JOINT neck
      {
        OFFSET 0 22.1894 -2.19456
        CHANNELS 3 Zrotation Xrotation Yrotation
        JOINT head
        {
          OFFSET -0.24384 7.07133 1.2192
          CHANNELS 3 Zrotation Xrotation Yrotation
          JOINT leftEye
          {
            OFFSET 4.14528 8.04674 8.04672
            CHANNELS 3 Zrotation Xrotation Yrotation
            End Site
            {
              OFFSET 1 0 0
            }
          }
          JOINT rightEye
          {
            OFFSET -3.6576 8.04674 8.04672
            CHANNELS 3 Zrotation Xrotation Yrotation
            End Site
            {
              OFFSET 1 0 0
            }
          }
        }
      }
      JOINT rCollar
      {
        OFFSET -2.68224 19.2634 -4.8768
        CHANNELS 3 Zrotation Xrotation Yrotation
        JOINT rShldr
        {
          OFFSET -8.77824 -1.95073 1.46304
          CHANNELS 3 Zrotation Xrotation Yrotation
          JOINT rForeArm
          {
            OFFSET -28.1742 -1.7115 0.48768
            CHANNELS 3 Zrotation Xrotation Yrotation
            JOINT rHand
            {
              OFFSET -22.5879 0.773209 7.07136
              CHANNELS 3 Zrotation Xrotation Yrotation
              JOINT rThumb1
              {
                OFFSET -1.2192 -0.487915 3.41376
                CHANNELS 3 Zrotation Xrotation Yrotation
                JOINT rThumb2
                {
                  OFFSET -3.37035 -0.52449 3.41376
                  CHANNELS 3 Zrotation Xrotation Yrotation
                  End Site
                  {
                    OFFSET -1.78271 -1.18214 1.43049
                  }
                }
              }
              JOINT rIndex1
              {
                OFFSET -7.75947 0.938293 5.60832
                CHANNELS 3 Zrotation Xrotation Yrotation
                JOINT rIndex2
                {
                  OFFSET -2.54057 -0.884171 1.56538
                  CHANNELS 3 Zrotation Xrotation Yrotation
                  End Site
                  {
                    OFFSET -1.62519 -0.234802 1.16502
                  }
                }
              }
              JOINT rMid1
              {
                OFFSET -8.24714 1.18213 3.41376
                CHANNELS 3 Zrotation Xrotation Yrotation
                JOINT rMid2
                {
                  OFFSET -3.10165 -0.590103 1.0647
                  CHANNELS 3 Zrotation Xrotation Yrotation
                  End Site
                  {
                    OFFSET -2.48547 -0.328903 0.83742
                  }
                }
              }
              JOINT rRing1
              {
                OFFSET -8.82822 0.546677 1.51678
                CHANNELS 3 Zrotation Xrotation Yrotation
                JOINT rRing2
                {
                  OFFSET -2.60934 -0.819778 -0.0198488
                  CHANNELS 3 Zrotation Xrotation Yrotation
                  End Site
                  {
                    OFFSET -2.33842 -0.294052 0.168128
                  }
                }
              }
              JOINT rPinky1
              {
                OFFSET -8.27202 -0.0477905 -0.4584
                CHANNELS 3 Zrotation Xrotation Yrotation
                JOINT rPinky2
                {
                  OFFSET -1.82734 -0.647385 -0.700984
                  CHANNELS 3 Zrotation Xrotation Yrotation
                  End Site
                  {
                    OFFSET -1.69225 -0.51767 -0.607171
                  }
                }
              }
            }
          }
        }
      }
      JOINT lCollar
      {
        OFFSET 2.68224 19.2634 -4.8768
        CHANNELS 3 Zrotation Xrotation Yrotation
        JOINT lShldr
        {
          OFFSET 8.77824 -1.95073 1.46304
          CHANNELS 3 Zrotation Xrotation Yrotation
          JOINT lForeArm
          {
            OFFSET 28.1742 -1.7115 0.48768
            CHANNELS 3 Zrotation Xrotation Yrotation
            JOINT lHand
            {
              OFFSET 22.5879 0.773209 7.07136
              CHANNELS 3 Zrotation Xrotation Yrotation
              JOINT lThumb1
              {
                OFFSET 1.2192 -0.487915 3.41376
                CHANNELS 3 Zrotation Xrotation Yrotation
                JOINT lThumb2
                {
                  OFFSET 3.37035 -0.52449 3.41376
                  CHANNELS 3 Zrotation Xrotation Yrotation
                  End Site
                  {
                    OFFSET 1.78271 -1.18214 1.43049
                  }
                }
              }
              JOINT lIndex1
              {
                OFFSET 7.75947 0.938293 5.60832
                CHANNELS 3 Zrotation Xrotation Yrotation
                JOINT lIndex2
                {
                  OFFSET 2.54057 -0.884171 1.56538
                  CHANNELS 3 Zrotation Xrotation Yrotation
                  End Site
                  {
                    OFFSET 1.62519 -0.234802 1.16502
                  }
                }
              }
              JOINT lMid1
              {
                OFFSET 8.24714 1.18213 3.41376
                CHANNELS 3 Zrotation Xrotation Yrotation
                JOINT lMid2
                {
                  OFFSET 3.10165 -0.590103 1.0647
                  CHANNELS 3 Zrotation Xrotation Yrotation
                  End Site
                  {
                    OFFSET 2.48547 -0.328903 0.83742
                  }
                }
              }
              JOINT lRing1
              {
                OFFSET 8.82822 0.546677 1.51678
                CHANNELS 3 Zrotation Xrotation Yrotation
                JOINT lRing2
                {
                  OFFSET 2.60934 -0.819778 -0.0198488
                  CHANNELS 3 Zrotation Xrotation Yrotation
                  End Site
                  {
                    OFFSET 2.33842 -0.294052 0.168128
                  }
                }
              }
              JOINT lPinky1
              {
                OFFSET 8.27202 -0.0477905 -0.4584
                CHANNELS 3 Zrotation Xrotation Yrotation
                JOINT lPinky2
                {
                  OFFSET 1.82734 -0.647385 -0.700984
                  CHANNELS 3 Zrotation Xrotation Yrotation
                  End Site
                  {
                    OFFSET 1.69225 -0.51767 -0.607171
                  }
                }
              }
            }
          }
        }
      }
    }
  }
  JOINT rButtock
  {
    OFFSET -8.77824 4.35084 1.2192
    CHANNELS 3 Zrotation Xrotation Yrotation
    JOINT rThigh
    {
      OFFSET 0 -1.70687 -2.19456
      CHANNELS 3 Zrotation Xrotation Yrotation
      JOINT rShin
      {
        OFFSET 0 -36.8199 0.73152
        CHANNELS 3 Zrotation Xrotation Yrotation
        JOINT rFoot
        {
          OFFSET 0.73152 -45.1104 -5.12064
          CHANNELS 3 Zrotation Xrotation Yrotation
          End Site
          {
            OFFSET -1.1221 -3.69964 12.103
          }
        }
      }
    }
  }
  JOINT lButtock
  {
    OFFSET 8.77824 4.35084 1.2192
    CHANNELS 3 Zrotation Xrotation Yrotation
    JOINT lThigh
    {
      OFFSET 0 -1.70687 -2.19456
      CHANNELS 3 Zrotation Xrotation Yrotation
      JOINT lShin
      {
        OFFSET 0 -36.8199 0.73152
        CHANNELS 3 Zrotation Xrotation Yrotation
        JOINT lFoot
        {
          OFFSET -0.73152 -45.1104 -5.12064
          CHANNELS 3 Zrotation Xrotation Yrotation
          End Site
          {
            OFFSET 1.1221 -3.69964 12.103
          }
        }
      }
    }
  }
}
MOTION
Frames:	9
Frame Time:	0.00833333
153.529 79.2297 0.867444 181.935 -146.833 -175.786 -4.90257 8.86652 -3.14475 1.83002 1.69514 -1.09757 -2.23619 19.7733 -14.3308 6.35275 -49.9149 -27.7208 -0.0 0.0 0.0 -0.0 0.0 0.0 4.987e-14 -1.33705e-13 -2.10032e-14 68.0323 34.7925 19.9523 -16.2741 -8.94759 30.2416 -0.0196391 3.95958 0.557389 2.05452e-10 -3.18903e-09 -3.30149e-10 3.57703e-10 -5.52072e-09 -5.7536e-10 2.05455e-10 -3.18903e-09 -3.30155e-10 7.73091 5.47488 0.417314 2.05449e-10 -3.18903e-09 -3.30149e-10 2.90554 0.965183 0.102902 2.05459e-10 -3.18903e-09 -3.30148e-10 10.2786 0.731801 0.0259123 2.0545e-10 -3.18903e-09 -3.30145e-10 2.22167 -0.733487 -0.20892 4.9793e-14 -1.33685e-13 -2.12587e-14 -48.7967 51.7861 -35.4382 17.3197 -9.97192 -32.51 0.401832 17.7448 -2.57746 9.0501e-11 9.68185e-10 2.24556e-10 1.58353e-10 1.67389e-09 3.85686e-10 9.04959e-11 9.68186e-10 2.24562e-10 -7.73091 5.47488 -0.417314 9.05011e-11 9.68184e-10 2.24556e-10 -2.90554 0.965183 -0.102902 9.04979e-11 9.68184e-10 2.24555e-10 -10.2786 0.731801 -0.0259123 9.05054e-11 9.68188e-10 2.24548e-10 -2.22167 -0.733487 0.20892 -2.03217e-16 0.0 -3.88251e-19 -21.0164 -44.0841 5.09079 -1.37278 63.5085 1.63105 -0.847987 4.37884 -2.44975 2.03217e-16 0.0 3.88251e-19 12.4943 -31.1884 15.059 0.860083 57.8313 -1.62332 -3.07703 -26.5916 -6.02036
153.94 79.2952 1.08787 182.053 -147.256 -175.779 -4.83993 8.80045 -3.29726 1.8801 1.6848 -1.13881 -2.18325 19.9202 -14.4778 6.16952 -50.1607 -28.1222 -0.0 0.0 0.0 -0.0 0.0 0.0 1.25654e-13 -1.52676e-13 -2.32031e-13 69.4512 32.576 18.5818 -15.4793 -8.21229 28.5809 -0.0209567 4.12915 0.581331 3.23401e-10 -3.34664e-09 -1.28895e-10 5.62179e-10 -5.79386e-09 -2.27215e-10 3.23404e-10 -3.34663e-09 -1.28898e-10 7.73091 5.47488 0.417314 3.23397e-10 -3.34664e-09 -1.28895e-10 2.90554 0.965183 0.102902 3.23409e-10 -3.34664e-09 -1.28894e-10 10.2786 0.731801 0.0259123 3.23399e-10 -3.34664e-09 -1.28892e-10 2.22167 -0.733487 -0.20892 1.25569e-13 -1.52658e-13 -2.3228e-13 -49.244 51.4907 -34.7721 16.7083 -9.36225 -31.1825 0.377608 17.21 -2.49496 -6.39441e-10 1.76212e-09 4.31509e-10 -1.09966e-09 3.05412e-09 7.56986e-10 -6.39445e-10 1.76212e-09 4.31515e-10 -7.73091 5.47488 -0.417314 -6.3944e-10 1.76212e-09 4.31509e-10 -2.90554 0.965183 -0.102902 -6.39444e-10 1.76212e-09 4.31509e-10 -10.2786 0.731801 -0.0259123 -6.39437e-10 1.76213e-09 4.31503e-10 -2.22167 -0.733487 0.20892 -2.03217e-16 0.0 -3.88251e-19 -20.308 -44.0972 5.78033 -1.38855 63.6736 1.63965 -0.948226 4.10206 -3.74463 2.03217e-16 0.0 3.88251e-19 11.9139 -31.1261 14.7317 0.84172 57.4747 -1.59896 -3.10902 -26.919 -6.03775
154.344 79.42 1.29886 182.137 -147.817 -175.678 -4.70355 8.64562 -3.48546 1.8716 1.6777 -1.18625 -2.08339 19.9898 -14.6526 5.93179 -50.2755 -28.5992 -0.0 0.0 0.0 -0.0 0.0 0.0 1.18494e-13 -1.25217e-13 -2.33884e-13 70.7353 30.3551 17.192 -14.6725 -7.50978 26.9249 -0.0222846 4.1511 0.584551 3.33558e-10 -2.67932e-09 -4.03398e-11 5.79588e-10 -4.63863e-09 -7.298e-11 3.33561e-10 -2.67932e-09 -4.03446e-11 7.73091 5.47488 0.417314 3.33555e-10 -2.67932e-09 -4.03391e-11 2.90554 0.965183 0.102902 3.33565e-10 -2.67932e-09 -4.03379e-11 10.2786 0.731801 0.0259123 3.33555e-10 -2.67932e-09 -4.03341e-11 2.22167 -0.733487 -0.20892 1.18431e-13 -1.25202e-13 -2.34123e-13 -49.5723 51.2276 -34.2203 16.052 -8.74102 -29.7722 0.354003 16.6774 -2.41317 -7.33804e-10 1.5863e-09 4.1945e-10 -1.26271e-09 2.75056e-09 7.3785e-10 -7.33806e-10 1.5863e-09 4.19458e-10 -7.73091 5.47488 -0.417314 -7.33803e-10 1.5863e-09 4.19452e-10 -2.90554 0.965183 -0.102902 -7.33808e-10 1.5863e-09 4.19452e-10 -10.2786 0.731801 -0.0259123 -7.33801e-10 1.58631e-09 4.19446e-10 -2.22167 -0.733487 0.20892 -2.03217e-16 0.0 -3.88251e-19 -19.513 -43.9895 6.37704 -1.38784 63.6582 1.6355 -1.0559 3.67627 -4.82294 2.03217e-16 0.0 3.88251e-19 11.145 -31.125 14.0577 0.817098 56.9697 -1.56412 -2.96874 -27.2334 -5.7455
154.732 79.6069 1.4966 182.161 -148.531 -175.489 -4.51939 8.4085 -3.701 1.82697 1.67204 -1.23849 -1.95983 20.0 -14.8538 5.65951 -50.269 -29.1381 -0.0 0.0 0.0 -0.0 0.0 0.0 6.65405e-14 -6.56036e-14 -1.33462e-13 71.8727 28.1135 15.7797 -13.8576 -6.84397 25.2649 -0.0227185 4.02986 0.567609 2.72638e-10 -1.34918e-09 5.6882e-11 4.73548e-10 -2.33572e-09 9.71049e-11 2.7264e-10 -1.34917e-09 5.68729e-11 7.73091 5.47488 0.417314 2.72635e-10 -1.34918e-09 5.6884e-11 2.90554 0.965183 0.102902 2.72643e-10 -1.34917e-09 5.68857e-11 10.2786 0.731801 0.0259123 2.72632e-10 -1.34917e-09 5.68924e-11 2.22167 -0.733487 -0.20892 6.65191e-14 -6.55944e-14 -1.33689e-13 -49.8078 50.9923 -33.7676 15.3431 -8.09801 -28.2808 0.33017 16.1158 -2.32747 -5.2502e-10 8.69708e-10 2.8797e-10 -9.03663e-10 1.50856e-09 5.06729e-10 -5.2502e-10 8.69711e-10 2.8798e-10 -7.73091 5.47488 -0.417314 -5.25018e-10 8.69711e-10 2.87974e-10 -2.90554 0.965183 -0.102902 -5.25026e-10 8.6971e-10 2.87973e-10 -10.2786 0.731801 -0.0259123 -5.25017e-10 8.69713e-10 2.87968e-10 -2.22167 -0.733487 0.20892 -2.03217e-16 0.0 -3.88251e-19 -18.6434 -43.7722 6.89561 -1.37295 63.4829 1.61952 -1.18326 3.12167 -5.79879 2.03217e-16 0.0 3.88251e-19 10.2059 -31.1534 13.0954 0.787039 56.3141 -1.5198 -2.68029 -27.5429 -5.19344
155.099 79.855 1.67808 182.126 -149.4 -175.231 -4.3186 8.14575 -3.95213 1.79115 1.65874 -1.29993 -1.84301 19.9704 -15.0737 5.39145 -50.2121 -29.7127 -0.0 0.0 0.0 -0.0 0.0 0.0 6.36658e-15 -7.38173e-15 -2.11119e-14 72.8572 25.8919 14.354 -13.0471 -6.21628 23.644 -0.0231281 4.04822 0.570233 2.5618e-10 -6.33439e-11 1.3303e-10 4.44082e-10 -1.09504e-10 2.30085e-10 2.56183e-10 -6.33402e-11 1.33016e-10 7.73091 5.47488 0.417314 2.56178e-10 -6.33442e-11 1.33033e-10 2.90554 0.965183 0.102902 2.56184e-10 -6.33434e-11 1.33035e-10 10.2786 0.731801 0.0259123 2.56172e-10 -6.33393e-11 1.33044e-10 2.22167 -0.733487 -0.20892 6.38088e-15 -7.37801e-15 -2.13243e-14 -50.1943 50.613 -33.2132 14.6037 -7.45633 -26.7637 0.314341 15.7311 -2.269 -1.90584e-10 1.05503e-10 1.74608e-10 -3.27228e-10 1.82762e-10 3.04766e-10 -1.90583e-10 1.05506e-10 1.7462e-10 -7.73091 5.47488 -0.417314 -1.90582e-10 1.05506e-10 1.74614e-10 -2.90554 0.965183 -0.102902 -1.90592e-10 1.05506e-10 1.74613e-10 -10.2786 0.731801 -0.0259123 -1.90582e-10 1.05508e-10 1.74608e-10 -2.22167 -0.733487 0.20892 -2.03217e-16 0.0 -3.88251e-19 -17.7026 -43.4822 7.34301 -1.34751 63.1834 1.59541 -1.31707 2.49321 -6.57567 2.03217e-16 0.0 3.88251e-19 9.18824 -31.2073 11.9268 0.754155 55.5607 -1.47028 -2.33314 -27.7433 -4.56186
155.442 80.1573 1.83966 182.05 -150.409 -174.927 -4.13164 7.91393 -4.24719 1.80904 1.62874 -1.37499 -1.76313 19.9209 -15.3051 5.16269 -50.1761 -30.3 -0.0 0.0 0.0 -0.0 0.0 0.0 -2.54548e-14 1.59028e-14 1.28216e-14 73.6892 23.7333 12.9195 -12.2553 -5.62926 22.1052 -0.0247784 4.48899 0.632194 3.99727e-10 4.71029e-10 1.58363e-10 6.91214e-10 8.15653e-10 2.73007e-10 3.99729e-10 4.71032e-10 1.58347e-10 7.73091 5.47488 0.417314 3.99724e-10 4.71028e-10 1.58366e-10 2.90554 0.965183 0.102902 3.9973e-10 4.71029e-10 1.58368e-10 10.2786 0.731801 0.0259123 3.99718e-10 4.71034e-10 1.58379e-10 2.22167 -0.733487 -0.20892 -2.54358e-14 1.59028e-14 1.26228e-14 -50.9552 49.9117 -32.3754 13.8611 -6.84294 -25.2751 0.313363 15.7287 -2.26837 9.20071e-11 -2.13158e-10 2.16904e-10 1.6189e-10 -3.72195e-10 3.73107e-10 9.20091e-11 -2.13155e-10 2.16917e-10 -7.73091 5.47488 -0.417314 9.20092e-11 -2.13154e-10 2.16911e-10 -2.90554 0.965183 -0.102902 9.19981e-11 -2.13154e-10 2.16909e-10 -10.2786 0.731801 -0.0259123 9.20101e-11 -2.13152e-10 2.16904e-10 -2.22167 -0.733487 0.20892 -2.03217e-16 0.0 -3.88251e-19 -16.6919 -43.1559 7.72781 -1.31516 62.7954 1.56685 -1.43542 1.84495 -7.05735 2.03217e-16 0.0 3.88251e-19 8.18307 -31.2842 10.6339 0.720507 54.762 -1.41934 -2.02521 -27.7324 -4.03506
155.761 80.5053 1.98144 181.966 -151.534 -174.602 -3.95766 7.73159 -4.58897 1.89692 1.57787 -1.46502 -1.72576 19.8455 -15.552 4.97088 -50.1787 -30.9137 -0.0 0.0 0.0 -0.0 0.0 0.0 -1.40214e-14 -2.25119e-14 -8.04119e-14 74.3688 21.5482 11.4609 -11.4728 -5.08439 20.603 -0.0344025 5.4733 0.77151 7.93373e-10 -2.36516e-10 2.18656e-10 1.3724e-09 -4.08827e-10 3.73212e-10 7.93375e-10 -2.36514e-10 2.18642e-10 7.73091 5.47488 0.417314 7.93371e-10 -2.36518e-10 2.18658e-10 2.90554 0.965183 0.102902 7.93378e-10 -2.36517e-10 2.18658e-10 10.2786 0.731801 0.0259123 7.93365e-10 -2.36512e-10 2.18669e-10 2.22167 -0.733487 -0.20892 -1.40532e-14 -2.25132e-14 -8.05971e-14 -52.0883 48.8408 -31.2899 13.1123 -6.26171 -23.7864 0.332861 16.2066 -2.34102 3.60437e-10 2.15456e-10 5.18841e-10 6.30215e-10 3.64558e-10 8.91127e-10 3.60438e-10 2.15456e-10 5.18854e-10 -7.73091 5.47488 -0.417314 3.60439e-10 2.15459e-10 5.18846e-10 -2.90554 0.965183 -0.102902 3.60428e-10 2.15459e-10 5.18844e-10 -10.2786 0.731801 -0.0259123 3.60441e-10 2.1546e-10 5.18838e-10 -2.22167 -0.733487 0.20892 -2.03217e-16 0.0 -3.88251e-19 -15.5906 -42.7688 8.04823 -1.27445 62.2989 1.53326 -1.51676 1.18615 -7.16547 2.03217e-16 0.0 3.88251e-19 7.15376 -31.3844 9.1108 0.686152 53.9114 -1.36706 -1.74122 -27.485 -3.57852
156.063 80.8933 2.10756 181.907 -152.75 -174.273 -3.78368 7.56728 -4.97279 2.02924 1.51154 -1.56762 -1.7164 19.7373 -15.8162 4.80096 -50.1813 -31.5596 -0.0 0.0 0.0 -0.0 0.0 0.0 1.94447e-14 -9.87958e-14 -2.44409e-13 74.8909 19.3476 9.97109 -10.7064 -4.58745 19.1307 -0.0562311 6.83493 0.965549 1.35574e-09 -1.70821e-09 2.98535e-10 2.34626e-09 -2.95592e-09 5.05123e-10 1.35574e-09 -1.70821e-09 2.98525e-10 7.73091 5.47488 0.417314 1.35573e-09 -1.70821e-09 2.98535e-10 2.90554 0.965183 0.102902 1.35574e-09 -1.70821e-09 2.98534e-10 10.2786 0.731801 0.0259123 1.35573e-09 -1.7082e-09 2.98542e-10 2.22167 -0.733487 -0.20892 1.93258e-14 -9.8797e-14 -2.4458e-13 -53.4379 47.4814 -30.0815 12.3499 -5.70362 -22.2811 0.370324 17.0407 -2.46921 6.81032e-10 1.07159e-09 9.84629e-10 1.191e-09 1.83956e-09 1.69186e-09 6.8103e-10 1.07158e-09 9.84642e-10 -7.73091 5.47488 -0.417314 6.81033e-10 1.07159e-09 9.84631e-10 -2.90554 0.965183 -0.102902 6.81024e-10 1.07159e-09 9.84629e-10 -10.2786 0.731801 -0.0259123 6.81037e-10 1.07159e-09 9.84621e-10 -2.22167 -0.733487 0.20892 -2.03217e-16 0.0 -3.88251e-19 -14.4051 -42.3141 8.30146 -1.22545 61.6846 1.49437 -1.5617 0.488321 -6.96993 2.03217e-16 0.0 3.88251e-19 6.06777 -31.4967 7.35344 0.651091 52.9877 -1.31257 -1.45186 -27.0546 -3.1262
156.35 81.3154 2.22135 181.887 -154.026 -173.941 -3.62149 7.40257 -5.39581 2.18812 1.43508 -1.68151 -1.7347 19.6153 -16.0866 4.66649 -50.1715 -32.2042 -0.0 0.0 0.0 -0.0 0.0 0.0 5.73301e-14 -1.70607e-13 -4.11784e-13 75.2695 17.329 8.45292 -9.99941 -4.14969 17.7889 -0.0886826 8.42561 1.19345 1.94514e-09 -3.19884e-09 2.16538e-10 3.36455e-09 -5.53659e-09 3.56401e-10 1.94514e-09 -3.19884e-09 2.16533e-10 7.73091 5.47488 0.417314 1.94514e-09 -3.19884e-09 2.16536e-10 2.90554 0.965183 0.102902 1.94515e-09 -3.19884e-09 2.16533e-10 10.2786 0.731801 0.0259123 1.94513e-09 -3.19884e-09 2.16539e-10 2.22167 -0.733487 -0.20892 5.71286e-14 -1.70608e-13 -4.11942e-13 -54.9648 45.8385 -28.7313 11.6021 -5.18078 -20.8297 0.420907 18.1034 -2.63399 9.1926e-10 1.91616e-09 1.45215e-09 1.60962e-09 3.29595e-09 2.49693e-09 9.19256e-10 1.91615e-09 1.45216e-09 -7.73091 5.47488 -0.417314 9.19261e-10 1.91616e-09 1.45215e-09 -2.90554 0.965183 -0.102902 9.19253e-10 1.91616e-09 1.45215e-09 -10.2786 0.731801 -0.0259123 9.19268e-10 1.91616e-09 1.45214e-09 -2.22167 -0.733487 0.20892 -2.03217e-16 0.0 -3.88251e-19 -13.1744 -41.854 8.49606 -1.1735 61.0047 1.4538 -1.57946 -0.251651 -6.59659 2.03217e-16 0.0 3.88251e-19 5.02253 -31.6127 5.5977 0.616547 52.0219 -1.25753 -1.23349 -26.4609 -2.81492
